<!DOCTYPE svg PUBLIC "-//W3C//DTD SVG 20010904//EN" "http://www.w3.org/TR/2001/REC-SVG-20010904/DTD/svg10.dtd">
<svg version="1.0" xmlns="http://www.w3.org/2000/svg" width="400px" height="107px" viewBox="0 0 4000 1070" preserveAspectRatio="xMidYMid meet">
<g id="layer101" fill="#7e00ff" stroke="none">
 <path d="M350 1047 c-161 -58 -282 -180 -330 -335 -28 -89 -28 -264 0 -353 48 -158 180 -291 338 -339 90 -28 264 -28 354 0 155 48 277 169 335 330 31 88 33 257 3 352 -49 159 -189 299 -349 348 -94 30 -263 28 -351 -3z m348 -45 c192 -74 317 -240 329 -438 16 -244 -140 -456 -383 -519 -215 -56 -456 59 -557 265 -75 153 -75 289 0 448 51 111 187 219 320 258 69 20 223 12 291 -14z"/>
 <path d="M462 790 c-57 -35 -64 -69 -60 -276 l3 -183 34 -35 c61 -63 158 -55 201 16 18 30 20 50 20 218 0 166 -2 188 -20 217 -37 62 -116 81 -178 43z m168 -345 c0 -113 -28 -155 -102 -155 -68 0 -98 47 -98 152 l0 78 100 0 100 0 0 -75z"/>
 <path d="M1170 706 c0 -20 120 -308 136 -325 7 -7 17 -11 22 -7 12 7 142 311 142 331 0 8 -8 15 -18 15 -13 0 -24 -13 -35 -40 l-15 -40 -82 0 -82 0 -15 40 c-11 27 -22 40 -35 40 -10 0 -18 -6 -18 -14z m210 -111 c0 -15 -53 -135 -60 -135 -7 0 -60 120 -60 135 0 3 27 5 60 5 33 0 60 -2 60 -5z"/>
 <path d="M1514 707 c-2 -7 -3 -85 -2 -172 l3 -160 45 -3 c77 -6 145 15 179 54 17 19 33 47 36 62 4 15 8 35 10 44 12 61 -39 147 -102 174 -42 18 -162 19 -169 1z m188 -64 c26 -26 32 -41 35 -85 5 -63 -9 -94 -56 -125 -24 -16 -49 -23 -82 -23 l-49 0 0 136 0 136 60 -4 c52 -4 66 -9 92 -35z"/>
 <path d="M1852 548 c3 -146 5 -173 18 -173 12 0 16 16 18 73 l3 72 104 0 105 0 0 -76 c0 -66 2 -75 18 -72 15 3 17 19 17 173 0 154 -2 170 -17 173 -16 3 -18 -6 -18 -77 l0 -81 -105 0 -105 0 0 80 c0 74 -2 80 -20 80 -20 0 -20 -5 -18 -172z"/>
 <path d="M2220 544 l0 -177 79 5 c96 6 140 29 170 92 66 134 -21 256 -181 256 l-68 0 0 -176z m165 116 c120 -74 60 -250 -84 -250 l-41 0 0 135 0 135 46 0 c29 0 59 -8 79 -20z"/>
 <path d="M2555 707 c-3 -7 -4 -85 -3 -172 l3 -160 120 0 c106 0 120 2 123 18 3 15 -7 17 -102 17 l-106 0 0 55 0 55 64 0 c72 0 96 6 96 25 0 19 -24 25 -96 25 l-64 0 0 55 0 55 106 0 c95 0 105 2 102 18 -3 15 -18 17 -121 20 -90 2 -119 0 -122 -11z"/>
 <path d="M2867 714 c-4 -4 -7 -49 -7 -100 0 -83 -2 -92 -20 -97 -28 -7 -25 -26 5 -37 17 -6 25 -17 25 -33 0 -42 68 -92 99 -72 18 10 12 35 -7 35 -23 0 -52 30 -52 53 0 12 9 17 30 17 23 0 30 4 30 20 0 16 -7 20 -30 20 l-29 0 -3 97 c-2 79 -6 98 -18 101 -9 1 -19 0 -23 -4z"/>
 <path d="M3027 714 c-4 -4 -7 -49 -7 -101 0 -86 -1 -93 -20 -93 -28 0 -25 -29 5 -40 17 -6 25 -17 25 -33 0 -42 68 -92 99 -72 18 11 12 35 -8 35 -25 0 -51 26 -51 51 0 14 7 19 30 19 23 0 30 4 30 20 0 16 -7 20 -30 20 l-29 0 -3 97 c-2 79 -6 98 -18 101 -9 1 -19 0 -23 -4z"/>
 <path d="M3208 704 c-54 -29 -74 -113 -42 -175 15 -31 66 -59 104 -59 55 0 110 57 110 115 l0 25 -95 0 c-59 0 -95 4 -95 10 0 6 11 22 26 36 26 27 60 29 122 9 18 -6 22 -4 22 12 0 40 -97 57 -152 27z m132 -134 c0 -21 -49 -60 -75 -60 -26 0 -75 39 -75 60 0 6 29 10 75 10 46 0 75 -4 75 -10z"/>
 <path d="M3473 710 c-57 -23 -81 -126 -43 -187 21 -36 82 -60 123 -49 39 9 71 40 64 60 -7 16 -9 16 -41 -3 -44 -27 -71 -26 -101 4 -71 70 20 186 105 133 16 -10 22 -10 32 0 11 11 9 17 -11 33 -25 20 -88 25 -128 9z"/>
 <path d="M3725 697 c-25 -21 -28 -32 -33 -100 -4 -67 -7 -77 -23 -77 -25 0 -24 -30 0 -37 14 -4 21 -15 23 -42 2 -28 7 -36 23 -36 16 0 21 8 23 37 3 32 7 37 30 40 16 2 28 10 30 21 3 13 -3 17 -27 17 l-31 0 0 68 c0 73 10 92 48 92 17 0 23 5 20 18 -5 27 -51 27 -83 -1z"/>
 </g>

</svg>